<svg width="186" height="189" viewBox="0 0 186 189" fill="none" xmlns="http://www.w3.org/2000/svg">
<path d="M2.97572 110.526C6.20853 119.488 11.0131 129.21 17.7719 134.876C32.7606 147.443 35.9728 151.571 41.5059 176.705C47.039 201.839 72.7342 180.654 72.7342 180.654C72.7342 180.654 80.4072 175.447 93.2697 182.728C96.8296 184.451 100.798 185.136 104.725 184.703C115.432 184.164 135.562 179.69 151.964 156.059C175.52 122.129 189.26 112.075 185.335 81.9137C181.41 51.7526 176.947 36.1338 143.043 30.9268C119.93 27.3794 100.886 15.0637 91.0932 7.58852C90.4287 7.07911 89.7505 6.59736 89.0586 6.13866C85.034 3.44857 80.5188 1.58869 75.7746 0.666783C71.0303 -0.255123 66.1514 -0.220726 61.4205 0.767981C52.3589 2.80029 43.9488 7.08706 36.9603 13.2358C33.7111 15.9994 30.7502 19.0886 28.1233 22.4559C23.6363 28.2034 20.1198 34.6544 17.7147 41.5506C14.3367 51.5062 10.3046 61.2248 5.6449 70.6422C3.10104 75.4909 1.37158 80.7293 0.526488 86.1457C-0.666321 94.3513 0.175033 102.726 2.97572 110.526Z" fill="#828A9E"/>
<path d="M58.103 170.364C58.8472 170.364 59.5618 170.071 60.0946 169.548C60.6274 169.025 60.9363 168.314 60.9554 167.566C61.4664 150.338 51.7909 141.934 51.3762 141.586C50.7953 141.126 50.0595 140.91 49.3238 140.984C48.5881 141.059 47.9098 141.418 47.4318 141.985C46.9538 142.553 46.7133 143.285 46.761 144.027C46.8087 144.77 47.1408 145.464 47.6874 145.965C48.0403 146.272 55.6743 153.09 55.2482 167.388C55.2369 167.765 55.2995 168.141 55.4325 168.493C55.5655 168.846 55.7662 169.169 56.0232 169.444C56.2802 169.718 56.5885 169.939 56.9304 170.094C57.2723 170.249 57.6411 170.334 58.0159 170.345L58.103 170.364Z" fill="#62667C"/>
<path d="M19.0779 100.469C19.1905 100.469 19.3029 100.462 19.4147 100.448C20.1662 100.359 20.8519 99.9738 21.321 99.3765C21.7902 98.7791 22.0044 98.0188 21.9166 97.2627C20.1868 82.4553 24.957 75.1161 25.0051 75.0447C25.4356 74.4181 25.6011 73.645 25.4651 72.8957C25.3291 72.1464 24.9028 71.482 24.2799 71.0489C23.6571 70.6158 22.8887 70.4493 22.1439 70.5861C21.3991 70.723 20.7387 71.1518 20.3082 71.7785C20.0585 72.138 14.239 80.768 16.246 97.9335C16.3284 98.6313 16.662 99.2746 17.1838 99.7418C17.7055 100.209 18.3794 100.468 19.0779 100.469Z" fill="#62667C"/>
<path d="M132.096 100.469C132.526 100.469 132.951 100.372 133.338 100.183C133.726 99.9952 134.066 99.7213 134.334 99.3822C134.602 99.0431 134.79 98.6475 134.884 98.225C134.979 97.8026 134.977 97.3641 134.879 96.9423C131.864 83.9374 119.877 79.7861 113.959 79.4081C113.203 79.3586 112.459 79.6131 111.89 80.1156C111.321 80.6181 110.973 81.3275 110.924 82.0877C110.875 82.8479 111.128 83.5966 111.627 84.1691C112.127 84.7417 112.832 85.0912 113.588 85.1407C114.142 85.1799 126.526 86.2125 129.316 98.247C129.463 98.8784 129.817 99.4416 130.321 99.845C130.826 100.248 131.451 100.468 132.096 100.469Z" fill="#62667C"/>
<path d="M162.316 108.606C163.013 108.607 163.687 108.35 164.208 107.884C173.538 99.57 172.117 85.7699 172.053 85.1867C171.97 84.4296 171.59 83.7369 170.999 83.261C170.408 82.785 169.653 82.5649 168.9 82.6489C168.148 82.733 167.459 83.1144 166.986 83.7092C166.513 84.304 166.294 85.0635 166.378 85.8206C166.389 85.9336 167.507 97.2696 160.421 103.583C159.987 103.97 159.68 104.48 159.541 105.046C159.403 105.612 159.438 106.208 159.644 106.753C159.85 107.298 160.216 107.767 160.693 108.098C161.17 108.429 161.736 108.606 162.316 108.606Z" fill="#62667C"/>
<path d="M99.0251 113.873C104.281 113.873 108.543 110.497 108.543 106.333C108.543 102.169 104.281 98.7932 99.0251 98.7932C93.7688 98.7932 89.5077 102.169 89.5077 106.333C89.5077 110.497 93.7688 113.873 99.0251 113.873Z" fill="#62667C"/>
<path d="M93.1475 150.075C97.9267 145.708 100.134 140.321 98.0767 138.043C96.0197 135.764 90.4779 137.456 85.6987 141.822C80.9195 146.189 78.7126 151.576 80.7695 153.855C82.8265 156.133 88.3683 154.441 93.1475 150.075Z" fill="#62667C"/>
<path d="M140.315 143.984C142.784 138.944 141.555 133.257 137.571 131.282C133.587 129.307 128.356 131.792 125.888 136.832C123.419 141.872 124.647 147.56 128.631 149.535C132.615 151.51 137.846 149.025 140.315 143.984Z" fill="#62667C"/>
<path d="M54.2122 128.363C58.5788 123.97 57.5054 115.768 51.8148 110.043C46.1242 104.318 37.9712 103.238 33.6046 107.631C29.238 112.024 30.3113 120.226 36.0019 125.951C41.6926 131.677 49.8456 132.756 54.2122 128.363Z" fill="#62667C"/>
<path d="M68.4854 74.0728C78.5737 71.9143 85.4882 64.1864 83.9293 56.8122C82.3704 49.4379 72.9284 45.2098 62.8401 47.3683C52.7518 49.5269 45.8373 57.2548 47.3962 64.629C48.9552 72.0033 58.3971 76.2314 68.4854 74.0728Z" fill="#62667C"/>
<path d="M28.1233 22.4489C34.4263 27.2525 44.1613 30.3344 55.0901 30.3344C74.1066 30.3344 89.51 21.006 89.51 9.50855C89.5085 8.37038 89.3544 7.23762 89.0518 6.14092C85.0272 3.45082 80.5119 1.59095 75.7677 0.669041C71.0235 -0.252864 66.1446 -0.218468 61.4137 0.770239C52.3547 2.80296 43.9471 7.08887 36.9603 13.2358C33.7115 15.9971 30.7506 19.0841 28.1233 22.4489Z" fill="#62667C"/>
<path d="M130.464 47.6173C131.536 47.6173 132.208 47.5666 132.331 47.5574C133.086 47.4963 133.786 47.136 134.276 46.5559C134.767 45.9758 135.009 45.2233 134.948 44.4641C134.887 43.7048 134.529 43.0009 133.952 42.5073C133.376 42.0136 132.628 41.7706 131.873 41.8317C131.674 41.8479 118.555 42.7537 110.616 34.3381C110.094 33.7858 109.376 33.4646 108.619 33.4451C107.862 33.4257 107.128 33.7096 106.579 34.2344C106.03 34.7592 105.711 35.482 105.691 36.2436C105.672 37.0053 105.954 37.7435 106.476 38.2958C114.44 46.7322 125.974 47.6173 130.464 47.6173Z" fill="#62667C"/>
</svg>
